<svg width="68" height="73" viewBox="0 0 68 73" fill="none" xmlns="http://www.w3.org/2000/svg">
<g id="Component 5">
<path id="Vector" d="M47.9224 0.223533C50.4582 0.721343 52.1065 3.14338 51.5994 5.63242L51.375 6.72378C50.8581 9.27983 49.9023 11.7114 48.5661 13.9229H62.6109C65.1955 13.9229 67.2925 15.9811 67.2925 18.518C67.2925 20.2891 66.2684 21.8304 64.7663 22.5962C65.8295 23.4387 66.5122 24.7311 66.5122 26.1766C66.5122 28.4168 64.8736 30.2836 62.7181 30.6856C63.1473 31.3845 63.3911 32.1982 63.3911 33.0694C63.3911 35.1085 62.0354 36.8412 60.1628 37.4348C60.2311 37.7507 60.2701 38.0858 60.2701 38.4304C60.2701 40.9673 58.1731 43.0256 55.5885 43.0256H46.079C44.2259 43.0256 42.4215 42.4895 40.8805 41.4843L37.1254 39.0239C34.5213 37.3199 32.9608 34.4479 32.9608 31.3749V27.7084V23.1132V20.7295C32.9608 17.9341 34.258 15.3014 36.472 13.5495L37.1937 12.9847C39.7783 10.9552 41.5437 8.10232 42.1874 4.924L42.4117 3.83265C42.9189 1.3436 45.3865 -0.274276 47.9224 0.223533ZM20.4765 15.4546H26.7187C28.445 15.4546 29.8397 16.8236 29.8397 18.518V39.9621C29.8397 41.6566 28.445 43.0256 26.7187 43.0256H20.4765C18.7502 43.0256 17.3555 41.6566 17.3555 39.9621V18.518C17.3555 16.8236 18.7502 15.4546 20.4765 15.4546Z" fill="#FF6D00"/>
<path id="Vector_2" d="M45.8658 41.8078C46.1528 42.5368 45.9106 43.3495 45.2918 43.869L41.4085 47.1703C41.5072 47.8658 41.561 48.578 41.561 49.2986C41.561 50.0192 41.5072 50.7314 41.4085 51.4269L45.2918 54.7282C45.9106 55.2477 46.1528 56.0604 45.8658 56.7894C45.4712 57.7865 44.9959 58.7417 44.4488 59.6634L44.0273 60.3421C43.4354 61.2638 42.7717 62.1352 42.0453 62.9563C41.5162 63.5596 40.6373 63.7607 39.8481 63.5261L34.8527 62.043C33.651 62.9061 32.3237 63.6267 30.9067 64.1713L29.7857 68.9557C29.6063 69.7182 28.9785 70.3215 28.1534 70.4472C26.9158 70.6399 25.6423 70.7404 24.3419 70.7404C23.0415 70.7404 21.768 70.6399 20.5304 70.4472C19.7053 70.3215 19.0775 69.7182 18.8982 68.9557L17.7771 64.1713C16.3601 63.6267 15.0328 62.9061 13.8311 62.043L8.84472 63.5345C8.05551 63.7691 7.17662 63.5596 6.64749 62.9647C5.92106 62.1436 5.25741 61.2722 4.6655 60.3505L4.24399 59.6718C3.69693 58.7501 3.22161 57.7949 2.82701 56.7978C2.54002 56.0688 2.78216 55.2561 3.40097 54.7366L7.28424 51.4352C7.18559 50.7314 7.13178 50.0192 7.13178 49.2986C7.13178 48.578 7.18559 47.8658 7.28424 47.1703L3.40097 43.869C2.78216 43.3495 2.54002 42.5368 2.82701 41.8078C3.22161 40.8107 3.69693 39.8555 4.24399 38.9338L4.6655 38.2551C5.25741 37.3334 5.92106 36.462 6.64749 35.6408C7.17662 35.0376 8.05551 34.8365 8.84472 35.0711L13.8401 36.5542C15.0418 35.6911 16.3691 34.9705 17.7861 34.4259L18.9071 29.6415C19.0865 28.879 19.7143 28.2757 20.5394 28.15C21.777 27.9489 23.0505 27.8484 24.3509 27.8484C25.6513 27.8484 26.9248 27.9489 28.1624 28.1417C28.9875 28.2673 29.6153 28.8706 29.7946 29.6331L30.9157 34.4175C32.3326 34.9621 33.66 35.6827 34.8617 36.5458L39.857 35.0627C40.6462 34.8281 41.5251 35.0376 42.0543 35.6325C42.7807 36.4536 43.4443 37.325 44.0362 38.2467L44.4578 38.9254C45.0048 39.8471 45.4801 40.8023 45.8747 41.7994L45.8658 41.8078ZM24.3509 56.0018C26.2537 56.0018 28.0786 55.2956 29.4241 54.0385C30.7696 52.7814 31.5255 51.0764 31.5255 49.2986C31.5255 47.5208 30.7696 45.8158 29.4241 44.5587C28.0786 43.3016 26.2537 42.5954 24.3509 42.5954C22.448 42.5954 20.6232 43.3016 19.2776 44.5587C17.9321 45.8158 17.1763 47.5208 17.1763 49.2986C17.1763 51.0764 17.9321 52.7814 19.2776 54.0385C20.6232 55.2956 22.448 56.0018 24.3509 56.0018Z" fill="#FF6D00" stroke="white" stroke-width="4"/>
</g>
</svg>
