<svg width="50" height="50" viewBox="0 0 50 50" fill="none" xmlns="http://www.w3.org/2000/svg">
<g id="Id Visual">
<path id="ID Visual" d="M36.0034 2.01144L30.587 7.38755L42.7618 19.4501L48.1782 14.0836C50.3078 11.9736 50.3078 8.56297 48.1782 6.45299L43.705 2.01144C41.5754 -0.0985395 38.133 -0.0985395 36.0034 2.01144ZM28.1852 9.36264L27.2905 9.63241L13.2779 13.7946C11.3428 14.3726 9.80639 15.8371 9.16459 17.7447L0.548933 43.1994C0.179412 44.2881 0.451691 45.502 1.2588 46.321L16.1952 31.5319C15.9035 30.9249 15.7382 30.2505 15.7382 29.5375C15.7382 26.9843 17.8289 24.9129 20.4058 24.9129C22.9827 24.9129 25.0734 26.9843 25.0734 29.5375C25.0734 32.0907 22.9827 34.1621 20.4058 34.1621C19.6862 34.1621 19.0055 33.9983 18.3929 33.7093L3.45647 48.508C4.29276 49.3077 5.50828 49.5871 6.60712 49.2114L32.3082 40.6751C34.2239 40.0392 35.7117 38.517 36.2952 36.5997L40.496 22.7162L40.7683 21.8298L28.1852 9.36264Z" fill="#FF6D00"/>
</g>
</svg>
