<svg width="54" height="53" viewBox="0 0 54 53" fill="none" xmlns="http://www.w3.org/2000/svg">
<g id="lancamentos">
<path id="Lancamentos" d="M16.8214 39.4901L13.6573 36.3543C12.7869 35.4917 12.4797 34.2434 12.8688 33.0865C13.176 32.1833 13.5856 31.0061 14.0771 29.6564H3.24336C2.36273 29.6564 1.54354 29.1896 1.10323 28.4284C0.662918 27.6673 0.673158 26.7337 1.12371 25.9827L6.49962 17.0014C7.8308 14.7789 10.2372 13.419 12.8381 13.419H21.2655C21.5112 13.0131 21.757 12.6376 22.0027 12.2723C30.3892 0.0130788 42.8818 -0.392854 50.3364 0.967024C51.5242 1.18014 52.4458 2.10364 52.671 3.28085C54.0432 10.679 53.6233 23.0498 41.2639 31.3613C40.9055 31.6049 40.5164 31.8484 40.1068 32.092V40.4441C40.1068 43.0218 38.7346 45.4168 36.4921 46.7259L27.4299 52.0538C26.6721 52.5003 25.73 52.5105 24.962 52.0741C24.1941 51.6377 23.723 50.836 23.723 49.9531V39.0741C22.2792 39.5713 21.0197 39.9773 20.0674 40.2817C18.9205 40.647 17.6713 40.3324 16.8111 39.4901H16.8214ZM40.1068 17.4784C41.1931 17.4784 42.2349 17.0507 43.003 16.2894C43.7712 15.5282 44.2027 14.4956 44.2027 13.419C44.2027 12.3424 43.7712 11.3099 43.003 10.5487C42.2349 9.78738 41.1931 9.3597 40.1068 9.3597C39.0205 9.3597 37.9786 9.78738 37.2105 10.5487C36.4424 11.3099 36.0108 12.3424 36.0108 13.419C36.0108 14.4956 36.4424 15.5282 37.2105 16.2894C37.9786 17.0507 39.0205 17.4784 40.1068 17.4784Z" fill="#FF6D00"/>
</g>
</svg>
