<svg width="1164" height="693" viewBox="0 0 1164 693" fill="none" xmlns="http://www.w3.org/2000/svg">
<path opacity="0.1" d="M1131.41 692.922H1024.56C1004.56 692.922 991.582 687.551 991.582 670.194V507.746C991.582 501.519 986.502 496.538 980.327 496.538L936.247 501.753C931.401 502.298 924.679 506.89 924.679 513.273V667.781C924.679 687.318 909.282 692.844 894.198 692.844C885.523 692.844 802.988 692.533 802.988 692.533C747.653 692.533 742.416 661.554 742.416 640.304C742.416 634.777 742.495 630.652 749.138 629.484L890.603 615.941C897.559 615.084 902.248 608.468 900.685 601.696C896.621 527.984 841.207 496.616 801.503 496.616C770.006 496.616 735.07 510.315 712.091 534.678C691.145 556.94 683.877 586.674 683.877 628.006C683.877 643.262 686.065 657.506 690.364 670.738C693.959 681.636 691.223 692.844 680.594 692.844C669.965 692.844 659.961 689.731 659.961 664.511C659.961 651.746 660.039 642.172 660.039 628.317V507.746C660.039 501.597 655.037 496.538 648.784 496.538L604.312 501.13C598.138 501.13 593.136 506.112 593.136 512.261V628.395C593.136 693 565.234 693 551.634 693C536.863 693 510.133 693 510.133 628.395V508.213C510.133 501.831 504.974 496.616 498.487 496.616L454.954 501.052C448.545 501.052 443.308 506.267 443.308 512.65V628.161C443.308 637.502 443.152 645.363 443.152 654.081C443.152 675.253 434.555 692.766 417.282 692.766H326.229C311.926 690.976 299.499 684.749 288.791 674.163C275.895 661.398 269.486 645.986 269.486 627.928C269.486 609.869 275.895 594.535 288.791 581.926C301.687 569.316 317.162 563.011 335.373 563.011C350.457 563.011 363.666 567.292 374.843 575.932C379.845 579.824 387.035 578.89 390.865 573.831L417.047 538.959C420.799 533.978 419.861 526.894 414.859 523.08C391.803 505.333 365.229 496.46 335.373 496.46C298.327 496.46 266.985 509.225 241.194 534.678C215.402 560.131 202.506 591.188 202.506 628.006C202.506 643.184 204.616 657.428 208.915 670.661C212.51 681.636 204.225 692.844 192.658 692.844H62.6822C47.8323 692.844 33.9984 685.45 25.8701 673.151C12.5052 652.914 0 586.674 0 569.394C0 446.099 75.2655 367.483 192.658 321.792C210.321 314.942 222.983 299.375 225.953 280.772C227.985 267.851 188.484 99.9625 358.32 1.57563C367.074 -3.48382 378.328 5.46752 379.501 15.4307C381.548 32.6796 374.6 49.2979 372.795 65.1457C358.007 88.4892 344.213 112.253 331.731 135.021C331.723 135.036 331.715 135.052 331.708 135.067C324.017 149.101 316.819 162.754 310.206 175.691C281.452 231.913 270.331 274.677 269.518 276.623C279.608 254.875 289.635 234.552 299.577 215.567C325.064 166.911 350.02 127.066 374.217 94.6384C391.936 70.8979 409.247 51.1271 426.075 34.7968C435.626 25.5263 444.434 15.7421 471.883 3.59163C494.165 -6.2704 510.133 -0.206845 510.133 78.6194C510.133 135.371 464.098 250.999 390.169 317.48C379.102 327.435 378.446 343.166 393.217 345.268C456.916 354.297 631.902 290.19 719.438 279.993C734.757 278.203 750.389 277.269 766.254 277.269C790.64 277.269 814.556 279.448 837.768 283.652C848.242 285.598 858.636 287.855 868.797 290.579C910.767 301.632 950.081 319.457 985.486 342.653C1099.83 417.922 1156.34 579.824 1163.84 657.35C1165.72 676.421 1150.79 692.844 1131.41 692.922Z" fill="#1D1D1F"/>
</svg>
