<svg width="86" height="68" viewBox="0 0 86 68" fill="none" xmlns="http://www.w3.org/2000/svg">
<g id="Area de Membros">
<path id="Area Membros" d="M24.8228 8.42944C27.0143 8.42944 29.1161 9.2848 30.6657 10.8073C32.2153 12.3299 33.0859 14.3949 33.0859 16.5481C33.0859 18.7013 32.2153 20.7663 30.6657 22.2889C29.1161 23.8114 27.0143 24.6668 24.8228 24.6668C22.6313 24.6668 20.5295 23.8114 18.9799 22.2889C17.4303 20.7663 16.5597 18.7013 16.5597 16.5481C16.5597 14.3949 17.4303 12.3299 18.9799 10.8073C20.5295 9.2848 22.6313 8.42944 24.8228 8.42944ZM62.8331 8.42944C65.0246 8.42944 67.1263 9.2848 68.676 10.8073C70.2256 12.3299 71.0962 14.3949 71.0962 16.5481C71.0962 18.7013 70.2256 20.7663 68.676 22.2889C67.1263 23.8114 65.0246 24.6668 62.8331 24.6668C60.6416 24.6668 58.5398 23.8114 56.9902 22.2889C55.4405 20.7663 54.57 18.7013 54.57 16.5481C54.57 14.3949 55.4405 12.3299 56.9902 10.8073C58.5398 9.2848 60.6416 8.42944 62.8331 8.42944ZM9.94922 38.7425C9.94922 32.7652 14.8864 27.9143 20.9701 27.9143H25.3806C27.0229 27.9143 28.5825 28.2695 29.9872 28.8987C29.853 29.6293 29.791 30.3905 29.791 31.1617C29.791 35.0384 31.5262 38.5193 34.2634 40.9041C34.2427 40.9041 34.2221 40.9041 34.1911 40.9041H12.1493C10.9408 40.9041 9.94922 39.9299 9.94922 38.7425ZM51.8122 40.9041C51.7915 40.9041 51.7708 40.9041 51.7399 40.9041C54.4873 38.5193 56.2123 35.0384 56.2123 31.1617C56.2123 30.3905 56.14 29.6395 56.016 28.8987C57.4207 28.2593 58.9804 27.9143 60.6227 27.9143H65.0331C71.1168 27.9143 76.054 32.7652 76.054 38.7425C76.054 39.9401 75.0625 40.9041 73.854 40.9041H51.8122ZM33.0859 31.1617C33.0859 28.5779 34.1306 26.0999 35.9902 24.2728C37.8497 22.4458 40.3718 21.4193 43.0016 21.4193C45.6314 21.4193 48.1535 22.4458 50.0131 24.2728C51.8727 26.0999 52.9173 28.5779 52.9173 31.1617C52.9173 33.7456 51.8727 36.2236 50.0131 38.0507C48.1535 39.8777 45.6314 40.9041 43.0016 40.9041C40.3718 40.9041 37.8497 39.8777 35.9902 38.0507C34.1306 36.2236 33.0859 33.7456 33.0859 31.1617ZM23.1702 57.6794C23.1702 50.2102 29.3365 44.1516 36.9386 44.1516H49.0647C56.6667 44.1516 62.8331 50.2102 62.8331 57.6794C62.8331 59.1712 61.6039 60.389 60.0753 60.389H25.928C24.4096 60.389 23.1702 59.1813 23.1702 57.6794Z" fill="#FF6D00"/>
</g>
</svg>
