<svg width="74" height="59" viewBox="0 0 74 59" fill="none" xmlns="http://www.w3.org/2000/svg">
<g id="Thumbnails">
<path id="Thumbs" d="M29.4605 0.429077H65.9321C69.9554 0.429077 73.2264 3.67934 73.2264 7.67705V33.045C73.2264 37.0427 69.9554 40.2929 65.9321 40.2929H29.4605C25.4372 40.2929 22.1662 37.0427 22.1662 33.045V7.67705C22.1662 3.67934 25.4372 0.429077 29.4605 0.429077ZM54.5347 12.5128C54.0218 11.754 53.167 11.301 52.2553 11.301C51.3435 11.301 50.4887 11.754 49.9758 12.5128L43.5932 22.0258L41.6215 19.5683C41.0972 18.9227 40.3108 18.549 39.4902 18.549C38.6696 18.549 37.8718 18.9227 37.3589 19.5683L30.0646 28.6282C29.4035 29.4436 29.2781 30.5648 29.734 31.5048C30.1899 32.4447 31.1473 33.045 32.1959 33.045H41.3138H46.7845H63.1967C64.2111 33.045 65.1343 32.49 65.613 31.6067C66.0917 30.7233 66.0347 29.6475 65.4762 28.8208L54.5347 12.5128ZM38.5784 11.301C38.5784 10.3399 38.1941 9.41812 37.5102 8.73849C36.8262 8.05886 35.8985 7.67705 34.9312 7.67705C33.964 7.67705 33.0363 8.05886 32.3523 8.73849C31.6683 9.41812 31.2841 10.3399 31.2841 11.301C31.2841 12.2622 31.6683 13.184 32.3523 13.8636C33.0363 14.5432 33.964 14.925 34.9312 14.925C35.8985 14.925 36.8262 14.5432 37.5102 13.8636C38.1941 13.184 38.5784 12.2622 38.5784 11.301ZM7.57753 14.925H18.519V43.9169V47.5409C18.519 49.5454 20.1488 51.1649 22.1662 51.1649H36.7548C38.7722 51.1649 40.402 49.5454 40.402 47.5409V43.9169H58.6378V51.1649C58.6378 55.1626 55.3667 58.4129 51.3435 58.4129H7.57753C3.55425 58.4129 0.283203 55.1626 0.283203 51.1649V22.173C0.283203 18.1753 3.55425 14.925 7.57753 14.925ZM8.48932 22.173C7.48635 22.173 6.66574 22.9884 6.66574 23.985V25.797C6.66574 26.7936 7.48635 27.609 8.48932 27.609H10.3129C11.3159 27.609 12.1365 26.7936 12.1365 25.797V23.985C12.1365 22.9884 11.3159 22.173 10.3129 22.173H8.48932ZM8.48932 33.951C7.48635 33.951 6.66574 34.7664 6.66574 35.763V37.575C6.66574 38.5715 7.48635 39.3869 8.48932 39.3869H10.3129C11.3159 39.3869 12.1365 38.5715 12.1365 37.575V35.763C12.1365 34.7664 11.3159 33.951 10.3129 33.951H8.48932ZM8.48932 45.7289C7.48635 45.7289 6.66574 46.5443 6.66574 47.5409V49.3529C6.66574 50.3495 7.48635 51.1649 8.48932 51.1649H10.3129C11.3159 51.1649 12.1365 50.3495 12.1365 49.3529V47.5409C12.1365 46.5443 11.3159 45.7289 10.3129 45.7289H8.48932ZM46.7845 47.5409V49.3529C46.7845 50.3495 47.6051 51.1649 48.6081 51.1649H50.4317C51.4346 51.1649 52.2553 50.3495 52.2553 49.3529V47.5409C52.2553 46.5443 51.4346 45.7289 50.4317 45.7289H48.6081C47.6051 45.7289 46.7845 46.5443 46.7845 47.5409Z" fill="#FF6D00"/>
</g>
</svg>
