<svg width="64" height="57" viewBox="0 0 64 57" fill="none" xmlns="http://www.w3.org/2000/svg">
<g id="Criativos">
<path id="Criativos_2" d="M3.91805 13.9144C1.81378 12.717 0.392578 10.4638 0.392578 7.88391C0.392578 4.04136 3.55449 0.917236 7.44352 0.917236C10.0546 0.917236 12.3351 2.32146 13.547 4.40058H50.6967C51.9086 2.32146 54.1891 0.917236 56.8001 0.917236C60.6892 0.917236 63.8511 4.04136 63.8511 7.88391C63.8511 10.4638 62.4299 12.717 60.3256 13.9144V43.6535C62.4299 44.8617 63.8511 47.1041 63.8511 49.684C63.8511 53.5265 60.6892 56.6507 56.8001 56.6507C54.1891 56.6507 51.9086 55.2464 50.6967 53.1673H13.547C12.3241 55.2464 10.0546 56.6507 7.44352 56.6507C3.55449 56.6507 0.392578 53.5265 0.392578 49.684C0.392578 47.1041 1.81378 44.8509 3.91805 43.6535V13.9144ZM50.6967 11.3673H13.547C12.93 12.4231 12.0377 13.3049 10.969 13.9144V43.6535C12.0377 44.263 12.93 45.1448 13.547 46.2006H50.6967C51.3136 45.1448 52.206 44.263 53.2747 43.6535V13.9144C52.206 13.3049 51.3136 12.4231 50.6967 11.3673ZM14.4945 18.3339C14.4945 16.4072 16.0699 14.8506 18.0199 14.8506H32.1218C34.0719 14.8506 35.6473 16.4072 35.6473 18.3339V28.784C35.6473 30.7107 34.0719 32.2673 32.1218 32.2673H18.0199C16.0699 32.2673 14.4945 30.7107 14.4945 28.784V18.3339ZM28.5964 35.7506H32.1218C36.0109 35.7506 39.1728 32.6265 39.1728 28.784V25.3006H46.2237C48.1737 25.3006 49.7492 26.8572 49.7492 28.784V39.234C49.7492 41.1607 48.1737 42.7173 46.2237 42.7173H32.1218C30.1718 42.7173 28.5964 41.1607 28.5964 39.234V35.7506Z" fill="#FF6D00"/>
</g>
</svg>
