<svg width="68" height="60" viewBox="0 0 68 60" fill="none" xmlns="http://www.w3.org/2000/svg">
<g id="Sites">
<path id="Sites e LP" fill-rule="evenodd" clip-rule="evenodd" d="M0.1875 9.04296C0.1875 8.75452 0.200708 8.46608 0.227124 8.19075C0.345995 7.06321 0.6894 6.00123 1.20451 5.04413C1.95736 3.6806 3.06682 2.55306 4.41403 1.7664C5.43104 1.18952 6.56692 0.809308 7.78204 0.69131C8.05941 0.665088 8.34998 0.651978 8.64056 0.651978H59.3589C64.0213 0.651978 67.812 4.41481 67.812 9.04296V25.8249V50.9978C67.812 55.626 64.0213 59.3888 59.3589 59.3888H8.64056C3.97817 59.3888 0.1875 55.626 0.1875 50.9978V25.8249V9.04296ZM33.9997 19.6551H6.52729V50.9978C6.52729 52.1516 7.47826 53.0956 8.64056 53.0956H59.3589C60.5212 53.0956 61.4722 52.1516 61.4722 50.9978V19.6551H33.9997ZM38.7006 40.0402C38.815 38.9389 38.8804 37.7836 38.8804 36.5851C38.8804 35.3866 38.8205 34.2313 38.7006 33.13H28.6027C28.4883 34.2313 28.423 35.3866 28.423 36.5851C28.423 37.7836 28.4829 38.9389 28.6027 40.0402H38.7006ZM47.1537 33.13H40.449C40.5634 34.2421 40.6233 35.3974 40.6233 36.5851C40.6233 37.7728 40.5634 38.9281 40.449 40.0402H47.1537C47.4424 38.9335 47.5949 37.7782 47.5949 36.5851C47.5949 35.392 47.4424 34.2367 47.1537 33.13ZM40.2257 31.4025H46.5764C44.9478 27.4021 41.4784 24.3357 37.2137 23.2182C38.6026 25.0645 39.681 27.9528 40.2257 31.4025ZM30.3129 26.29C29.6866 27.699 29.1746 29.4374 28.8424 31.4025H38.461C38.1287 29.432 37.6222 27.6936 36.9904 26.29C36.4185 25.0159 35.7813 24.0928 35.1658 23.5097C34.5558 22.9375 34.0493 22.7647 33.6517 22.7647C33.2541 22.7647 32.7475 22.9375 32.1375 23.5097C31.5221 24.0928 30.8848 25.0159 30.3129 26.29ZM20.7215 31.4025H27.0777C27.6223 27.9528 28.7007 25.0645 30.0896 23.2182C25.8195 24.3357 22.3555 27.4021 20.7215 31.4025ZM26.8544 33.13H20.1497C19.861 34.2367 19.7085 35.392 19.7085 36.5851C19.7085 37.7782 19.861 38.9335 20.1497 40.0402H26.8544C26.74 38.9281 26.6801 37.7728 26.6801 36.5851C26.6801 35.3974 26.74 34.2421 26.8544 33.13ZM28.8424 41.7678C29.1746 43.7329 29.6811 45.4712 30.3129 46.8749V46.8803C30.8848 48.1544 31.5221 49.0775 32.1375 49.6606C32.7475 50.2328 33.2541 50.4056 33.6517 50.4056C34.0493 50.4056 34.5558 50.2328 35.1658 49.6552C35.7813 49.0721 36.4185 48.149 36.9904 46.8749C37.6168 45.4712 38.1287 43.7329 38.461 41.7678H28.8424ZM30.0896 49.9521C28.7007 48.1058 27.6223 45.2175 27.0777 41.7678H20.7215C22.3555 45.7682 25.8195 48.8346 30.0896 49.9521ZM37.2192 49.9521C41.4838 48.8346 44.9478 45.7682 46.5818 41.7678H40.2311C39.681 45.2175 38.608 48.1058 37.2192 49.9521Z" fill="#FF6D00"/>
</g>
</svg>
