<svg width="1155" height="689" viewBox="0 0 1155 689" fill="none" xmlns="http://www.w3.org/2000/svg">
<path d="M1122.66 688.923H1016.64C996.789 688.923 983.915 683.583 983.915 666.325V504.816C983.915 498.625 978.874 493.672 972.748 493.672L929.008 498.857C924.199 499.398 917.53 503.964 917.53 510.31V663.926C917.53 683.351 902.252 688.845 887.284 688.845C878.676 688.845 796.78 688.536 796.78 688.536C741.872 688.536 736.676 657.735 736.676 636.608C736.676 631.113 736.754 627.012 743.346 625.851L883.717 612.385C890.619 611.534 895.272 604.956 893.721 598.223C889.688 524.937 834.703 493.749 795.306 493.749C764.052 493.749 729.386 507.369 706.586 531.592C685.801 553.725 678.589 583.287 678.589 624.381C678.589 639.549 680.76 653.711 685.026 666.867C688.593 677.701 685.879 688.845 675.332 688.845C664.784 688.845 654.858 685.75 654.858 660.676C654.858 647.984 654.935 638.465 654.935 624.69V504.816C654.935 498.702 649.972 493.672 643.768 493.672L599.64 498.238C593.513 498.238 588.55 503.19 588.55 509.304V624.768C588.55 689 560.863 689 547.369 689C532.712 689 506.189 689 506.189 624.768V505.28C506.189 498.934 501.07 493.749 494.633 493.749L451.436 498.16C445.077 498.16 439.881 503.345 439.881 509.691V624.535C439.881 633.822 439.726 641.638 439.726 650.306C439.726 671.355 431.195 688.768 414.056 688.768H323.706C309.514 686.988 297.183 680.797 286.558 670.272C273.762 657.58 267.403 642.257 267.403 624.303C267.403 606.349 273.762 591.104 286.558 578.567C299.355 566.03 314.71 559.761 332.78 559.761C347.748 559.761 360.854 564.018 371.944 572.608C376.908 576.477 384.043 575.549 387.843 570.518L413.823 535.848C417.545 530.896 416.615 523.853 411.651 520.061C388.773 502.417 362.405 493.594 332.78 493.594C296.02 493.594 264.921 506.286 239.329 531.592C213.736 556.898 200.94 587.776 200.94 624.381C200.94 639.471 203.034 653.633 207.299 666.79C210.867 677.701 202.646 688.845 191.168 688.845H62.1975C47.4624 688.845 33.7356 681.493 25.67 669.266C12.4085 649.145 0 583.287 0 566.107C0 443.524 74.6836 365.362 191.168 319.935C208.695 313.125 221.259 297.647 224.206 279.151C226.222 266.305 187.027 99.3855 355.55 1.56654C364.236 -3.46371 375.403 5.43596 376.566 15.3417C378.598 32.4909 371.704 49.0134 369.912 64.7697C355.239 87.9784 341.551 111.605 329.166 134.241C329.158 134.257 329.151 134.272 329.143 134.288C321.512 148.241 314.369 161.815 307.808 174.677C279.276 230.574 268.24 273.091 267.434 275.026C277.446 253.404 287.396 233.198 297.261 214.323C322.551 165.947 347.313 126.332 371.324 94.0921C388.905 70.4887 406.083 50.832 422.78 34.5959C432.257 25.379 440.997 15.6512 468.234 3.5709C490.345 -6.23421 506.189 -0.205652 506.189 78.1656C506.189 134.589 460.51 249.55 387.152 315.647C376.171 325.545 375.519 341.186 390.177 343.275C453.383 352.252 627.016 288.515 713.876 278.377C729.076 276.597 744.587 275.669 760.33 275.669C784.526 275.669 808.258 277.835 831.291 282.014C841.683 283.949 851.997 286.193 862.079 288.902C903.725 299.891 942.735 317.613 977.866 340.675C1091.33 415.509 1147.4 576.477 1154.84 653.556C1156.7 672.516 1141.89 688.845 1122.66 688.923Z" fill="#F37111"/>
</svg>
